<?xml version="1.0" encoding="utf-8"?>

<!DOCTYPE svg PUBLIC "-//W3C//DTD SVG 1.1//EN" "http://www.w3.org/Graphics/SVG/1.1/DTD/svg11.dtd">
<!-- Uploaded to: SVG Repo, www.svgrepo.com, Generator: SVG Repo Mixer Tools -->
<svg height="800px" width="800px" version="1.1" id="_x32_" xmlns="http://www.w3.org/2000/svg" xmlns:xlink="http://www.w3.org/1999/xlink" 
	 viewBox="0 0 512 512"  xml:space="preserve">
<style type="text/css">
	.st0{fill:#ff0000;}
</style>
<g>
	<path class="st0" d="M345.967,223.311l-85.818,73.916c-7.152-1.17-14.739,0.976-20.248,6.493c-9.097,9.089-9.097,23.835,0,32.925
		c9.089,9.096,23.835,9.096,32.924,0c5.517-5.51,7.663-13.096,6.494-20.248l73.915-85.817c1.984-2.31,2.054-5.541,0.163-7.432
		C351.507,221.259,348.276,221.328,345.967,223.311z"/>
	<path class="st0" d="M432.397,246.016c-14.552-34.381-38.791-63.57-69.336-84.206c-15.28-10.322-32.134-18.505-50.135-24.106
		c-18-5.595-37.155-8.609-56.93-8.609c-26.369,0-51.607,5.354-74.528,15.056c-34.388,14.544-63.571,38.79-84.213,69.336
		c-10.322,15.28-18.497,32.134-24.099,50.134c-5.594,18.001-8.609,37.148-8.609,56.93c0,26.37,5.354,51.607,15.056,74.528
		c14.544,34.389,38.79,63.571,69.335,84.214c15.281,10.314,32.134,18.496,50.135,24.098c18.001,5.595,37.147,8.609,56.922,8.609
		c26.376,0,51.615-5.354,74.536-15.056c34.381-14.544,63.571-38.791,84.206-69.336c10.321-15.28,18.504-32.134,24.106-50.134
		c5.595-18.001,8.608-37.148,8.608-56.923C447.452,294.174,442.098,268.936,432.397,246.016z M365.548,416.922l-20.271-20.27
		l-13.173,13.172l20.263,20.263c-4.68,4.123-9.616,7.966-14.8,11.468c-11.647,7.873-24.479,14.095-38.17,18.349
		c-10.864,3.379-22.262,5.502-34.087,6.246v-28.663h-18.62v28.671c-16.792-1.054-32.739-4.92-47.484-11.151
		c-14.536-6.145-27.888-14.614-39.589-24.912l20.279-20.271l-13.172-13.172l-20.264,20.263c-4.122-4.68-7.966-9.617-11.468-14.8
		c-7.873-11.646-14.094-24.478-18.349-38.17c-3.378-10.856-5.501-22.263-6.245-34.087h28.662v-18.628h-28.67
		c1.054-16.776,4.921-32.731,11.151-47.477c6.144-14.536,14.606-27.88,24.912-39.581l20.271,20.271l13.172-13.172l-20.263-20.263
		c4.68-4.123,9.616-7.966,14.8-11.468c11.647-7.873,24.479-14.095,38.171-18.349c10.856-3.378,22.262-5.502,34.087-6.246v28.663
		h18.62v-28.67c16.784,1.054,32.738,4.92,47.484,11.15c26.152,11.058,48.476,29.592,64.214,52.894
		c7.873,11.646,14.095,24.478,18.349,38.17c3.379,10.856,5.502,22.262,6.246,34.079l-28.663,0.008v18.62h28.671
		c-1.054,16.784-4.92,32.739-11.151,47.485C384.316,391.878,375.846,405.23,365.548,416.922z"/>
	<polygon class="st0" points="139.222,152.402 109.25,116.681 80.719,140.632 110.684,176.346 	"/>
	<polygon class="st0" points="431.281,140.632 402.742,116.681 372.778,152.402 401.317,176.346 	"/>
	<path class="st0" d="M228.574,99.734v16.947h54.854V99.734c3.836-2.286,7.369-5.029,10.499-8.167
		c9.702-9.686,15.715-23.138,15.715-37.93c0-14.793-6.013-28.244-15.715-37.922C284.24,6.013,270.789-0.008,255.996,0
		c-14.785-0.008-28.244,6.013-37.93,15.715c-9.694,9.678-15.707,23.13-15.707,37.922c0,14.792,6.013,28.244,15.707,37.93
		C221.204,94.705,224.738,97.448,228.574,99.734z M228.574,53.901v29.104c-0.333-0.317-0.667-0.628-0.992-0.945
		c-7.284-7.299-11.762-17.303-11.77-28.422c0.008-11.12,4.486-21.123,11.77-28.415c7.291-7.284,17.302-11.77,28.414-11.77
		c11.12,0,21.123,4.486,28.423,11.77c7.284,7.292,11.763,17.295,11.77,28.415c-0.008,11.119-4.487,21.123-11.77,28.422
		c-0.326,0.317-0.658,0.628-0.992,0.945V53.901H228.574z"/>
</g>
</svg>